<svg width="30" height="30" viewBox="0 0 30 30" fill="none" xmlns="http://www.w3.org/2000/svg">
    <path d="M4.6875 5.625C3.14531 5.625 1.875 6.89531 1.875 8.4375V21.5625C1.875 23.1047 3.14531 24.375 4.6875 24.375H25.3125C26.8547 24.375 28.125 23.1047 28.125 21.5625V8.4375C28.125 6.89531 26.8547 5.625 25.3125 5.625H4.6875ZM4.6875 7.5H25.3125C25.8422 7.5 26.25 7.90781 26.25 8.4375V10.3125H4.6875V12.1875H26.25V21.5625C26.25 22.0922 25.8422 22.5 25.3125 22.5H4.6875C4.15781 22.5 3.75 22.0922 3.75 21.5625V8.4375C3.75 7.90781 4.15781 7.5 4.6875 7.5Z" fill="white"/>
</svg>
