<svg width="46" height="40" viewBox="0 0 46 40" fill="none" xmlns="http://www.w3.org/2000/svg">
    <mask id="mask0_77_794" style="mask-type:luminance" maskUnits="userSpaceOnUse" x="2" y="1" width="42" height="38">
        <path fill-rule="evenodd" clip-rule="evenodd" d="M2 1H44V39H2V20V1Z" fill="white"/>
    </mask>
    <g mask="url(#mask0_77_794)">
        <path fill-rule="evenodd" clip-rule="evenodd" d="M5.7413 18.7775C8.61755 27.2773 19.981 34.1501 23.0008 35.8513C26.0309 34.1326 37.4764 27.1838 40.2604 18.7853C42.0883 13.3564 40.3917 6.47973 33.6503 4.41614C30.3843 3.4204 26.5746 4.02642 23.9445 5.95945C23.3947 6.36086 22.6316 6.36866 22.0776 5.97114C19.2917 3.9816 15.6522 3.39897 12.3349 4.41614C5.60385 6.47778 3.91339 13.3545 5.7413 18.7775M23.003 39.0002C22.7486 39.0002 22.4963 38.9418 22.2665 38.8229C21.6244 38.4897 6.49843 30.5705 2.81183 19.6699C2.80978 19.6699 2.80978 19.668 2.80978 19.668C0.495651 12.805 3.07237 4.18037 11.3913 1.63353C15.2974 0.433182 19.5544 0.961258 22.9968 3.02484C26.3326 1.02166 30.7639 0.468257 34.5921 1.63353C42.9193 4.18427 45.5042 12.8069 43.1921 19.668C39.6245 30.4438 24.3878 38.4819 23.7415 38.819C23.5118 38.9398 23.2574 39.0002 23.003 39.0002" fill="white"/>
    </g>
    <path d="M5.57262 8.37975C6.0016 7.51564 6.56678 6.72616 7.2465 6.04156L7.30466 5.98299L8.38904 4.89083L8.77815 4.49892C9.23864 4.03513 9.77103 3.6488 10.3548 3.35484C11.2013 2.92856 12.1359 2.70651 13.0836 2.70651H14.8953C14.8953 2.70651 18.2134 2.72479 18.1485 2.70665C18.0912 2.69067 21.1862 3.32796 22.3268 3.67586C22.5588 3.74662 22.762 3.8796 22.9445 4.0393L23.6933 4.69438C23.7078 4.70711 23.7265 4.71413 23.7458 4.71413C23.7691 4.71413 23.7913 4.70394 23.8065 4.68624L24.1747 4.2564C24.4236 3.96589 24.787 3.79867 25.1696 3.79867H25.3399C25.6024 3.79867 25.8612 3.73718 26.0957 3.61912L26.9394 3.19424C27.5762 2.87355 28.2793 2.70651 28.9923 2.70651H31.161H32.2454C32.9584 2.70651 33.6615 2.87355 34.2983 3.19424L35.1467 3.62146C35.378 3.73798 35.6335 3.79867 35.8925 3.79867C36.3344 3.79867 36.758 3.97502 37.0694 4.28859L37.6673 4.89083L38.7517 5.98299L39.1828 6.44453C39.577 6.86653 39.9128 7.33952 40.1811 7.85083L40.4003 8.26845C40.742 8.91938 40.9205 9.64353 40.9205 10.3787V10.6613C40.9205 11.176 41.0395 11.6837 41.2684 12.1447C41.7324 13.0792 41.7324 14.177 41.2684 15.1115C41.0395 15.5725 40.9205 16.0802 40.9205 16.5949V16.9046C40.9205 17.6229 40.7542 18.3315 40.4348 18.975L39.8361 20.181L38.7517 22.3654L37.6673 24.5497C36.9491 25.9965 36.0028 27.3183 34.8647 28.4645L34.4142 28.9183L33.6258 29.7123C32.7078 30.6369 31.7006 31.4684 30.6188 32.1948L30.27 32.429C29.4203 32.9995 28.629 33.6528 27.9079 34.3791L27.5852 34.7041C27.0807 35.2122 26.4975 35.6354 25.858 35.9574C25.0639 36.3573 24.1777 36.5912 23.2915 36.6628C18.3692 37.0603 21.602 37.3245 24.172 37.5995C28.1696 38.0274 20.8618 36.927 17.9594 34.145C17.3636 33.574 16.7196 33.0556 16.0345 32.5956L15.5468 32.2682C14.3924 31.493 13.3175 30.6056 12.3377 29.6188L11.6422 28.9183L10.3325 27.5993C9.76349 27.0261 9.29035 26.3652 8.93123 25.6418L8.66798 25.1116C8.48322 24.7394 8.2398 24.3994 7.94704 24.1045C7.52455 23.679 7.20659 23.1612 7.01819 22.592L6.39603 20.7121C6.28044 20.3628 6.08536 20.0452 5.82616 19.7841C5.38402 19.3388 5.13589 18.7367 5.13589 18.1092V17.9967V16.7627C5.13589 16.1377 4.99126 15.5211 4.71332 14.9612C4.28607 14.1006 4.17859 13.1161 4.41007 12.1836L4.89928 10.2127C5.05656 9.57908 5.28233 8.96448 5.57262 8.37975Z" fill="white"/>
</svg>
