<svg width="24" height="24" viewBox="0 0 24 24" fill="none" xmlns="http://www.w3.org/2000/svg">
    <path d="M9.51767 1.24914C9.10081 1.25204 8.68929 1.31129 8.28987 1.43068C7.89359 1.54928 7.52852 1.72117 7.19721 1.94007C7.55918 2.85985 8.48323 4.02742 9.55362 5.02412C10.6712 6.06484 11.9527 6.94904 12.7803 7.34781L12.79 7.35249L12.7995 7.35732C13.56 7.74803 14.0984 8.36293 14.4092 9.04126C14.6093 9.47804 14.7259 9.93554 14.7939 10.4006C15.4032 9.92532 16.0456 9.5447 16.6987 9.26846C16.649 8.41018 16.4602 7.51018 16.1163 6.60901C15.3951 4.71901 14.1354 3.19745 12.7087 2.26951C11.6833 1.60257 10.583 1.24173 9.51767 1.24914ZM5.93604 3.23218C5.69637 3.60409 5.49982 4.01874 5.35048 4.46907C4.85173 5.97254 4.89218 7.85851 5.61345 9.7486C6.04995 10.8925 6.68393 11.9011 7.43267 12.7252C8.17029 12.9459 8.89985 13.2868 9.58517 13.7495C10.1147 14.107 10.5865 14.5162 10.9954 14.9613C11.1289 14.9937 11.2624 15.0214 11.3957 15.0431C11.6498 14.3804 11.9795 13.7211 12.3859 13.0814C12.6317 12.694 12.9012 12.3221 13.1926 11.9678C13.196 11.7244 13.194 11.4886 13.1824 11.2635C13.151 10.6546 13.0535 10.1338 12.8749 9.74406C12.6964 9.35434 12.4639 9.08209 12.0284 8.8584L12.0476 8.86787C10.9752 8.35107 9.63602 7.40668 8.40354 6.25904C7.42385 5.34685 6.51504 4.32512 5.93604 3.23218ZM19.0494 9.59429C18.4163 9.59945 17.7465 9.74649 17.0689 10.0278C15.6232 10.6279 14.1717 11.8442 13.0981 13.5339C12.5488 14.3984 12.1541 15.2997 11.9088 16.1834C12.872 17.7996 13.1086 19.656 12.4147 21.2151C12.5269 21.3753 12.6521 21.526 12.789 21.6657C13.8036 20.7903 14.9728 20.0652 15.8038 19.3206C16.2581 18.9137 16.602 18.5109 16.7931 18.1272C16.9842 17.7434 17.05 17.3914 16.9506 16.912L16.9448 16.8842L16.9409 16.856C16.5634 14.1235 17.2257 12.5177 18.1908 11.5352C18.9669 10.7454 19.7394 10.3294 20.2723 9.78015C19.8873 9.65218 19.4767 9.59078 19.0494 9.59429ZM21.7094 10.7171C20.9299 11.686 19.9688 12.1335 19.3946 12.718C18.7347 13.3896 18.2793 14.1981 18.611 16.6135C18.7708 17.4347 18.6304 18.2235 18.3036 18.8795C17.971 19.5474 17.4735 20.0904 16.93 20.5774C16.1044 21.3172 15.152 21.9507 14.3553 22.5687C15.2588 22.8034 16.2875 22.6898 17.3349 22.2549C18.7805 21.6549 20.2322 20.4385 21.3057 18.7488C22.3794 17.0591 22.8638 15.2282 22.7929 13.6646C22.7388 12.4689 22.3694 11.4443 21.7094 10.7171L21.7094 10.7171ZM18.611 16.6135C18.6082 16.5987 18.606 16.5841 18.6029 16.5693L18.6126 16.6252C18.6122 16.6213 18.6117 16.6174 18.6111 16.6135H18.611ZM5.47559 13.2655C4.61388 13.2577 3.80215 13.4467 3.11895 13.8189C3.12363 13.8191 3.12771 13.8194 3.1324 13.8196C3.53693 13.8339 4.04477 13.7861 4.62949 13.866C5.21417 13.9458 5.8991 14.2113 6.41796 14.7984C6.93687 15.3855 7.29265 16.2178 7.54048 17.4131L7.54634 17.441L7.55018 17.4692C7.66517 18.3032 8.1964 18.7857 9.1174 19.2374C9.90321 19.6229 10.9121 19.8981 11.8698 20.1783C12.2987 18.2565 11.281 15.9124 9.11304 14.4488C7.94407 13.6596 6.6627 13.2762 5.47568 13.2655H5.47559ZM1.67506 15.2083C0.490525 17.2488 1.44049 20.2429 4.02377 21.987C6.56557 23.7031 9.63874 23.4999 11.1178 21.7198C10.2536 21.4735 9.27396 21.1939 8.37424 20.7526C7.21409 20.1835 6.10831 19.2273 5.88518 17.7422C5.6727 16.725 5.38877 16.1822 5.15346 15.9159C4.91721 15.6484 4.73299 15.5834 4.40112 15.5381C4.06924 15.4928 3.61315 15.5252 3.07301 15.5061C2.65207 15.4913 2.1582 15.4309 1.67506 15.2084V15.2083ZM5.88523 17.7421C5.88626 17.7468 5.88729 17.7511 5.88827 17.7559L5.87857 17.6998C5.88054 17.7141 5.88312 17.7279 5.88527 17.7422L5.88523 17.7421Z" fill="#C67C4E"/>
</svg>
