<svg width="17" height="21" viewBox="0 0 17 21" fill="none" xmlns="http://www.w3.org/2000/svg">
    <path d="M16 8.2C16 14.05 8.5 19 8.5 19C8.5 19 1 14.05 1 8.2C1 6.29044 1.79018 4.45909 3.1967 3.10883C4.60322 1.75857 6.51088 1 8.5 1C10.4891 1 12.3968 1.75857 13.8033 3.10883C15.2098 4.45909 16 6.29044 16 8.2Z" stroke="black" stroke-width="2"/>
    <path d="M11.3125 8.2C11.3125 8.91608 11.0162 9.60284 10.4887 10.1092C9.96129 10.6155 9.24592 10.9 8.5 10.9C7.75408 10.9 7.03871 10.6155 6.51126 10.1092C5.98382 9.60284 5.6875 8.91608 5.6875 8.2C5.6875 7.48392 5.98382 6.79716 6.51126 6.29081C7.03871 5.78446 7.75408 5.5 8.5 5.5C9.24592 5.5 9.96129 5.78446 10.4887 6.29081C11.0162 6.79716 11.3125 7.48392 11.3125 8.2Z" stroke="black" stroke-width="2"/>
</svg>
