<svg width="20" height="20" viewBox="0 0 20 20" fill="none" xmlns="http://www.w3.org/2000/svg">
    <mask id="mask0_43_325" style="mask-type:luminance" maskUnits="userSpaceOnUse" x="1" y="1" width="18" height="18">
        <path fill-rule="evenodd" clip-rule="evenodd" d="M1.66675 1.66684H18.3357V18.3343H1.66675V1.66684Z" fill="white"/>
    </mask>
    <g mask="url(#mask0_43_325)">
        <path fill-rule="evenodd" clip-rule="evenodd" d="M9.12068 16.7296C9.61235 17.2096 10.404 17.2038 10.8923 16.7129L11.494 16.1129C11.9607 15.6471 12.6057 15.3813 13.2632 15.3813H14.1215C14.8165 15.3813 15.3815 14.8163 15.3815 14.1221V13.2646C15.3815 12.5971 15.6398 11.9696 16.1115 11.4971L16.7115 10.8963C16.9557 10.6513 17.0865 10.3338 17.0857 9.9971C17.0848 9.66127 16.9523 9.34543 16.7132 9.1071L16.1123 8.50543C15.6398 8.0296 15.3815 7.40293 15.3815 6.73543V5.8796C15.3815 5.1846 14.8165 4.6196 14.1215 4.6196H13.2648C12.5973 4.6196 11.9698 4.36043 11.4973 3.89127L10.8957 3.28877C10.3948 2.79293 9.59568 2.79543 9.10652 3.28793L8.50735 3.88877C8.02902 4.36127 7.40152 4.6196 6.73652 4.6196H5.87902C5.18485 4.62043 4.61985 5.18543 4.61985 5.8796V6.73377C4.61985 7.40127 4.36068 8.02877 3.89068 8.5021L3.29902 9.0946C3.29318 9.10127 3.28735 9.10627 3.28152 9.1121C2.79235 9.6046 2.79485 10.4038 3.28735 10.8929L3.88902 11.4946C4.36068 11.9679 4.61985 12.5954 4.61985 13.2629V14.1221C4.61985 14.8163 5.18402 15.3813 5.87902 15.3813H6.73485C7.40318 15.3821 8.03068 15.6413 8.50318 16.1121L9.10402 16.7113C9.10902 16.7171 9.11485 16.7229 9.12068 16.7296ZM9.99902 18.3346C9.35985 18.3346 8.72068 18.0929 8.23152 17.6079C8.22485 17.6013 8.21818 17.5946 8.21152 17.5871L7.61985 16.9963C7.38402 16.7621 7.06902 16.6321 6.73402 16.6313H5.87902C4.49485 16.6313 3.36985 15.5054 3.36985 14.1221V13.2629C3.36985 12.9279 3.23902 12.6138 3.00402 12.3771L2.40485 11.7788C1.43152 10.8104 1.41985 9.23377 2.37568 8.25043C2.38318 8.24293 2.39068 8.23543 2.39818 8.22793L3.00485 7.6196C3.23902 7.38377 3.36985 7.06793 3.36985 6.73377V5.8796C3.36985 4.49627 4.49485 3.37043 5.87818 3.3696H6.73652C7.07068 3.3696 7.38568 3.23877 7.62485 3.00293L8.22068 2.40543C9.19485 1.4246 10.7873 1.4196 11.7698 2.39627L12.379 3.00543C12.6149 3.2396 12.9299 3.3696 13.2649 3.3696H14.1215C15.5057 3.3696 16.6315 4.49543 16.6315 5.8796V6.73543C16.6315 7.0696 16.7615 7.38543 16.9974 7.62293L17.5957 8.2221C18.0698 8.69293 18.3332 9.3221 18.3357 9.99293C18.3382 10.6638 18.079 11.2946 17.6065 11.7704L16.9957 12.3796C16.7615 12.6154 16.6315 12.9296 16.6315 13.2646V14.1221C16.6315 15.5054 15.5057 16.6313 14.1224 16.6313H13.2632C12.9332 16.6313 12.6107 16.7646 12.3765 16.9971L11.7782 17.5954C11.289 18.0879 10.644 18.3346 9.99902 18.3346Z" fill="#C67C4E"/>
    </g>
    <path fill-rule="evenodd" clip-rule="evenodd" d="M7.85856 12.7679C7.69856 12.7679 7.53856 12.7071 7.41689 12.5846C7.17272 12.3404 7.17272 11.9454 7.41689 11.7013L11.7002 7.4171C11.9444 7.17294 12.3402 7.17294 12.5844 7.4171C12.8286 7.66127 12.8286 8.0571 12.5844 8.30127L8.30022 12.5846C8.17856 12.7071 8.01856 12.7679 7.85856 12.7679Z" fill="#C67C4E"/>
    <path fill-rule="evenodd" clip-rule="evenodd" d="M12.0862 12.916C11.6253 12.916 11.2487 12.5435 11.2487 12.0827C11.2487 11.6219 11.6178 11.2494 12.0787 11.2494H12.0862C12.547 11.2494 12.9195 11.6219 12.9195 12.0827C12.9195 12.5435 12.547 12.916 12.0862 12.916Z" fill="#C67C4E"/>
    <path fill-rule="evenodd" clip-rule="evenodd" d="M7.91953 8.74934C7.4587 8.74934 7.08203 8.37684 7.08203 7.91601C7.08203 7.45517 7.4512 7.08267 7.91203 7.08267H7.91953C8.38036 7.08267 8.75286 7.45517 8.75286 7.91601C8.75286 8.37684 8.38036 8.74934 7.91953 8.74934Z" fill="#C67C4E"/>
</svg>
