<svg width="14" height="14" viewBox="0 0 14 14" fill="none" xmlns="http://www.w3.org/2000/svg">
    <path d="M6.70387 1.62692H4.52279C2.72904 1.62692 1.60437 2.89684 1.60437 4.69467V9.54451C1.60437 11.3423 2.72379 12.6123 4.52279 12.6123H9.67012C11.4697 12.6123 12.5891 11.3423 12.5891 9.54451V7.19484" stroke="#313131" stroke-linecap="round" stroke-linejoin="round"/>
    <path fill-rule="evenodd" clip-rule="evenodd" d="M5.14962 6.37053L9.50886 2.01128C10.0519 1.46878 10.9322 1.46878 11.4753 2.01128L12.1852 2.72119C12.7283 3.26428 12.7283 4.14511 12.1852 4.68761L7.80495 9.06786C7.56753 9.30528 7.24553 9.43886 6.90953 9.43886H4.72437L4.7792 7.23386C4.78737 6.90953 4.91978 6.60036 5.14962 6.37053Z" stroke="#313131" stroke-linecap="round" stroke-linejoin="round"/>
    <path d="M8.84644 2.68478L11.5099 5.34828" stroke="#313131" stroke-linecap="round" stroke-linejoin="round"/>
</svg>
