<svg width="52" height="52" viewBox="0 0 52 52" fill="none" xmlns="http://www.w3.org/2000/svg">
<rect width="52" height="52" rx="12" fill="#C67C4E"/>
<path fill-rule="evenodd" clip-rule="evenodd" d="M24.4001 31.494H19.1492C18.8042 31.494 18.5242 31.214 18.5242 30.869C18.5242 30.524 18.8042 30.244 19.1492 30.244H24.4001C24.7451 30.244 25.0251 30.524 25.0251 30.869C25.0251 31.214 24.7451 31.494 24.4001 31.494Z" fill="white"/>
<path fill-rule="evenodd" clip-rule="evenodd" d="M31.9924 23.417H26.7424C26.3974 23.417 26.1174 23.137 26.1174 22.792C26.1174 22.447 26.3974 22.167 26.7424 22.167H31.9924C32.3374 22.167 32.6174 22.447 32.6174 22.792C32.6174 23.137 32.3374 23.417 31.9924 23.417Z" fill="white"/>
<mask id="mask0_43_530" style="mask-type:luminance" maskUnits="userSpaceOnUse" x="18" y="20" width="6" height="6">
<path fill-rule="evenodd" clip-rule="evenodd" d="M18.5 20.167H23.6882V25.3267H18.5V20.167Z" fill="white"/>
</mask>
<g mask="url(#mask0_43_530)">
<path fill-rule="evenodd" clip-rule="evenodd" d="M21.094 21.4167C20.3532 21.4167 19.7498 22.0133 19.7498 22.7475C19.7498 23.4808 20.3532 24.0767 21.094 24.0767C21.8357 24.0767 22.4382 23.4808 22.4382 22.7475C22.4382 22.0133 21.8357 21.4167 21.094 21.4167ZM21.094 25.3267C19.664 25.3267 18.4998 24.17 18.4998 22.7475C18.4998 21.325 19.664 20.1667 21.094 20.1667C22.5248 20.1667 23.6882 21.325 23.6882 22.7475C23.6882 24.17 22.5248 25.3267 21.094 25.3267Z" fill="white"/>
</g>
<path fill-rule="evenodd" clip-rule="evenodd" d="M30.4898 29.5067C29.7481 29.5067 29.1448 30.1033 29.1448 30.8367C29.1448 31.5708 29.7481 32.1667 30.4898 32.1667C31.2306 32.1667 31.8331 31.5708 31.8331 30.8367C31.8331 30.1033 31.2306 29.5067 30.4898 29.5067ZM30.4898 33.4167C29.0589 33.4167 27.8948 32.2592 27.8948 30.8367C27.8948 29.4142 29.0589 28.2567 30.4898 28.2567C31.9198 28.2567 33.0831 29.4142 33.0831 30.8367C33.0831 32.2592 31.9198 33.4167 30.4898 33.4167Z" fill="white"/>
</svg>
