<svg width="25" height="25" viewBox="0 0 25 25" fill="none" xmlns="http://www.w3.org/2000/svg">
    <path d="M12.4167 2C18.1698 2 22.8333 6.66354 22.8333 12.4167C22.8333 18.1698 18.1698 22.8333 12.4167 22.8333C6.66354 22.8333 2 18.1698 2 12.4167C2 6.66354 6.66354 2 12.4167 2ZM12.4167 4.08333C10.2065 4.08333 8.08691 4.96131 6.52411 6.52411C4.96131 8.08691 4.08333 10.2065 4.08333 12.4167C4.08333 14.6268 4.96131 16.7464 6.52411 18.3092C8.08691 19.872 10.2065 20.75 12.4167 20.75C14.6268 20.75 16.7464 19.872 18.3092 18.3092C19.872 16.7464 20.75 14.6268 20.75 12.4167C20.75 10.2065 19.872 8.08691 18.3092 6.52411C16.7464 4.96131 14.6268 4.08333 12.4167 4.08333ZM12.4167 16.5833C12.6929 16.5833 12.9579 16.6931 13.1532 16.8884C13.3486 17.0838 13.4583 17.3487 13.4583 17.625C13.4583 17.9013 13.3486 18.1662 13.1532 18.3616C12.9579 18.5569 12.6929 18.6667 12.4167 18.6667C12.1404 18.6667 11.8754 18.5569 11.6801 18.3616C11.4847 18.1662 11.375 17.9013 11.375 17.625C11.375 17.3487 11.4847 17.0838 11.6801 16.8884C11.8754 16.6931 12.1404 16.5833 12.4167 16.5833ZM12.4167 6.6875C13.294 6.68753 14.144 6.99308 14.8206 7.55167C15.4972 8.11026 15.9581 8.88702 16.1243 9.74852C16.2904 10.61 16.1514 11.5025 15.731 12.2726C15.3107 13.0427 14.6353 13.6425 13.8208 13.9688C13.7002 14.0131 13.5915 14.0848 13.5031 14.1781C13.4573 14.2302 13.45 14.2969 13.451 14.3656L13.4583 14.5C13.458 14.7655 13.3564 15.0209 13.1741 15.2139C12.9919 15.407 12.7428 15.5232 12.4777 15.5387C12.2127 15.5543 11.9517 15.468 11.7481 15.2976C11.5445 15.1272 11.4137 14.8855 11.3823 14.6219L11.375 14.5V14.2396C11.375 13.0385 12.3438 12.3177 13.0458 12.0354C13.3316 11.9213 13.5808 11.7315 13.7669 11.4864C13.9529 11.2414 14.0686 10.9502 14.1017 10.6443C14.1347 10.3384 14.0838 10.0293 13.9544 9.75015C13.825 9.47099 13.622 9.23236 13.3672 9.05987C13.1124 8.88738 12.8155 8.78756 12.5082 8.77111C12.201 8.75467 11.8951 8.82223 11.6233 8.96653C11.3516 9.11084 11.1243 9.32644 10.9658 9.59019C10.8074 9.85393 10.7238 10.1559 10.724 10.4635C10.724 10.7398 10.6142 11.0048 10.4189 11.2001C10.2235 11.3955 9.95856 11.5052 9.68229 11.5052C9.40602 11.5052 9.14107 11.3955 8.94572 11.2001C8.75037 11.0048 8.64063 10.7398 8.64063 10.4635C8.64063 9.46207 9.03846 8.50162 9.7466 7.79348C10.4547 7.08533 11.4152 6.6875 12.4167 6.6875Z" fill="#C67C4E"/>
</svg>
