<svg width="24" height="24" viewBox="0 0 24 24" fill="none" xmlns="http://www.w3.org/2000/svg">
<path fill-rule="evenodd" clip-rule="evenodd" d="M13.467 14.2913C14.671 14.2913 15.651 15.2642 15.651 16.4603V19.5362C15.651 19.7932 15.857 19.9992 16.121 20.0052H18.027C19.529 20.0052 20.75 18.7993 20.75 17.3173V8.59325C20.743 8.08325 20.5 7.60325 20.083 7.28425L13.49 2.02625C12.605 1.32525 11.367 1.32525 10.479 2.02825L3.931 7.28225C3.498 7.61125 3.255 8.09125 3.25 8.61025V17.3173C3.25 18.7993 4.471 20.0052 5.973 20.0052H7.897C8.168 20.0052 8.388 19.7902 8.388 19.5262C8.388 19.4682 8.395 19.4102 8.407 19.3552V16.4603C8.407 15.2712 9.381 14.2993 10.576 14.2913H13.467ZM18.027 21.5053H16.103C15.001 21.4793 14.151 20.6143 14.151 19.5363V16.4603C14.151 16.0913 13.844 15.7913 13.467 15.7913H10.581C10.212 15.7933 9.907 16.0943 9.907 16.4603V19.5263C9.907 19.6013 9.897 19.6733 9.876 19.7413C9.768 20.7313 8.922 21.5053 7.897 21.5053H5.973C3.644 21.5053 1.75 19.6262 1.75 17.3172V8.60325C1.76 7.60925 2.218 6.69925 3.009 6.10025L9.544 0.85525C10.983 -0.28475 12.988 -0.28475 14.424 0.85325L21.006 6.10325C21.779 6.69225 22.237 7.60025 22.25 8.58225V17.3172C22.25 19.6262 20.356 21.5053 18.027 21.5053Z" fill="#A2A2A2"/>
</svg>
