<svg width="48" height="48" viewBox="0 0 48 48" fill="none" xmlns="http://www.w3.org/2000/svg">
<circle cx="24" cy="24" r="24" fill="#C67C4E"/>
<path fill-rule="evenodd" clip-rule="evenodd" d="M17.0632 9.87354C21.433 7.33455 26.8041 7.37893 31.1328 9.98979C35.4189 12.6538 38.0239 17.4084 37.9997 22.5229C37.8999 27.6039 35.1066 32.38 31.6149 36.0722C29.5997 38.2128 27.3452 40.1057 24.8977 41.7121C24.6456 41.8578 24.3695 41.9554 24.083 42C23.8072 41.9883 23.5386 41.9068 23.3015 41.7629C19.5649 39.3491 16.2867 36.2681 13.6247 32.6679C11.3972 29.6627 10.1317 26.032 10 22.2688C9.99711 17.1445 12.6935 12.4125 17.0632 9.87354ZM19.5884 24.3896C20.3234 26.2017 22.0584 27.3837 23.9833 27.3837C25.2443 27.3927 26.4564 26.8876 27.3497 25.9809C28.2429 25.0742 28.743 23.8413 28.7386 22.5568C28.7453 20.5961 27.591 18.8246 25.8146 18.0695C24.0382 17.3145 21.9901 17.7247 20.6267 19.1087C19.2632 20.4927 18.8533 22.5774 19.5884 24.3896Z" fill="white"/>
</svg>
