<svg width="24" height="24" viewBox="0 0 24 24" fill="none" xmlns="http://www.w3.org/2000/svg">
    <path d="M20.64 20.635C22.17 19.107 22.717 17.175 20.64 15.099C18.563 13.023 15.101 12.331 13.716 13.715C12.332 15.099 13.024 18.56 15.101 20.635C17.178 22.712 19.111 22.165 20.64 20.635ZM13.716 13.715L20.64 20.635" stroke="#C67C4E" stroke-width="1.5"/>
    <path d="M11.942 21.999H8.002M8 8.03901L4.985 4.94501L2.562 7.45701C2.20151 7.82994 2.00001 8.32834 2 8.84701V19.999C2 20.5294 2.21071 21.0382 2.58579 21.4132C2.96086 21.7883 3.46957 21.999 4 21.999H8V8.03901ZM8 8.03901H18.025M4.986 4.94601V3.50201C4.986 3.10419 5.14404 2.72266 5.42534 2.44135C5.70664 2.16005 6.08818 2.00201 6.486 2.00201H14.039C14.2384 2.00211 14.4359 2.04198 14.6197 2.11929C14.8036 2.1966 14.9702 2.3098 15.1098 2.45226C15.2493 2.59473 15.3591 2.7636 15.4326 2.949C15.5062 3.1344 15.542 3.33261 15.538 3.53201L15.518 4.56501C15.5129 4.8011 15.5916 5.03135 15.74 5.21501L18.025 8.03901V10.483" stroke="#C67C4E" stroke-width="1.5" stroke-linecap="round" stroke-linejoin="round"/>
</svg>
