<svg width="24" height="24" viewBox="0 0 24 24" fill="none" xmlns="http://www.w3.org/2000/svg">
<mask id="mask0_241_657" style="mask-type:luminance" maskUnits="userSpaceOnUse" x="3" y="1" width="19" height="18">
<path fill-rule="evenodd" clip-rule="evenodd" d="M3 1H21.4969V18.348H3V1Z" fill="white"/>
</mask>
<g mask="url(#mask0_241_657)">
<path fill-rule="evenodd" clip-rule="evenodd" d="M12.247 2.5C8.75201 2.5 6.31601 5.238 6.31601 7.695C6.31601 9.774 5.73901 10.735 5.22901 11.583C4.82001 12.264 4.49701 12.802 4.49701 13.971C4.66401 15.857 5.90901 16.848 12.247 16.848C18.55 16.848 19.834 15.813 20 13.906C19.997 12.802 19.674 12.264 19.265 11.583C18.755 10.735 18.178 9.774 18.178 7.695C18.178 5.238 15.742 2.5 12.247 2.5M12.247 18.348C7.57101 18.348 3.34501 18.018 3.00001 14.035C2.99701 12.387 3.50001 11.549 3.94401 10.811C4.39301 10.063 4.81601 9.358 4.81601 7.695C4.81601 4.462 7.80201 1 12.247 1C16.692 1 19.678 4.462 19.678 7.695C19.678 9.358 20.101 10.063 20.55 10.811C20.994 11.549 21.497 12.387 21.497 13.971C21.148 18.018 16.923 18.348 12.247 18.348" fill="#C67C4E"/>
</g>
<path fill-rule="evenodd" clip-rule="evenodd" d="M12.1983 22.5H12.1963C11.0753 22.499 10.0143 22.005 9.20927 21.108C8.93227 20.801 8.95727 20.326 9.26527 20.05C9.57327 19.772 10.0473 19.797 10.3243 20.106C10.8423 20.683 11.5073 21 12.1973 21H12.1983C12.8913 21 13.5593 20.683 14.0783 20.105C14.3563 19.798 14.8303 19.773 15.1373 20.05C15.4453 20.327 15.4703 20.802 15.1933 21.109C14.3853 22.006 13.3223 22.5 12.1983 22.5" fill="#C67C4E"/>
<path d="M12.4268 9.471C12.4268 9.49603 12.4268 9.52107 12.4268 9.8594C12.4268 10.1977 12.4268 10.8486 12.4236 11.2121C12.4193 11.7214 12.3953 11.8598 12.3794 12.1564C12.3709 12.3165 12.3132 12.5481 12.2785 12.8102C12.2349 13.139 12.1802 13.4404 12.133 13.6613C12.0865 13.8789 12.1044 14.1345 12.0731 14.4252C12.0616 14.5322 11.9792 14.5407 11.9188 14.5472C11.6887 14.5717 11.2855 14.5726 11.0365 14.6072C10.8712 14.6302 10.7332 14.6484 10.594 14.6704C10.4743 14.6893 10.3289 14.7493 10.1925 14.7968C10.1397 14.8152 10.088 14.8191 10.0344 14.8254C9.97215 14.8326 9.54182 14.857 8.90991 14.8539C8.53201 14.852 8.24386 14.7751 8.01798 14.7591C7.8977 14.7506 7.67453 14.6678 7.45226 14.573C7.308 14.5114 7.2372 14.3518 7.12957 14.1404C7.06451 14.0125 7.03465 13.8401 7.01863 13.7007C6.99696 13.5121 7.05286 13.1081 7.129 12.8475C7.18202 12.6661 7.22392 12.5501 7.24924 12.4017C7.26863 12.2879 7.34378 12.0521 7.39461 11.8611C7.44367 11.6766 7.48298 11.4062 7.51475 11.248C7.55286 11.0582 7.62825 10.794 7.65386 10.6251C7.6732 10.4975 7.72953 10.3381 7.78016 10.1922C7.84776 9.99754 7.8308 9.86357 7.86873 9.73698C7.91081 9.59655 7.91311 9.42738 7.93511 9.25356C7.95622 9.08677 8.02045 8.90281 8.06151 8.73203C8.09914 8.57549 8.10276 8.46017 8.1185 8.3367C8.13511 8.20637 8.19113 8.00539 8.20071 7.87519C8.21245 7.71565 8.30492 7.53088 8.39946 7.27836C8.45824 7.12136 8.51961 7.01238 8.59869 6.8765C8.68388 6.73012 8.89132 6.39488 9.09159 6.14322C9.19524 6.01297 9.46027 5.82442 9.63531 5.7477C9.80637 5.67274 10.0744 5.60253 10.2546 5.56744C10.3948 5.54015 10.5735 5.54525 10.9139 5.51064C11.3386 5.46747 11.7051 5.47584 11.863 5.45062C12.1068 5.41168 12.4196 5.33057 12.9211 5.3208C13.1259 5.31681 13.3231 5.4876 13.5009 5.56716C13.6165 5.61883 13.697 5.69659 13.795 5.74107C13.9212 5.79838 14.032 5.86728 14.3064 6.02507C14.4769 6.12311 14.6134 6.27161 14.7558 6.44542C14.8976 6.61869 15.031 6.80263 15.0943 6.89461C15.1585 6.98798 15.2142 7.23768 15.2398 7.41283C15.2665 7.59491 15.2905 7.76984 15.3156 7.96878C15.3511 8.24982 15.4483 8.55992 15.524 8.85009C15.6224 9.2268 15.6948 9.37504 15.7612 9.52742C15.8172 9.6559 15.8845 9.78013 15.9477 9.89098C16.0127 10.0048 16.0677 10.1405 16.1594 10.2859C16.2567 10.4403 16.3392 10.6647 16.5755 11.0678C16.7014 11.2826 16.8797 11.6633 16.9921 11.8787C17.1687 12.2172 17.237 12.3404 17.3194 12.5331C17.3886 12.6949 17.4521 12.8335 17.4872 13.0226C17.5409 13.3122 17.4591 13.5731 17.3961 13.6836C17.3016 13.8491 17.0303 13.8769 16.8211 13.9464C16.5414 14.0394 16.2596 14.1106 15.7292 14.171C15.5344 14.1932 15.2643 14.1868 15.0944 14.1963C14.9245 14.2058 14.8619 14.2183 14.2288 14.231C13.5958 14.2437 12.3941 14.2562 11.4497 14.247C10.5052 14.2378 9.85436 14.2065 9.47212 14.1779C8.85129 14.1314 8.67891 14.0294 8.47968 13.8558C8.37165 13.7616 8.27382 13.6315 8.18876 13.4018C8.06662 13.0718 8.00812 12.7468 7.97967 12.454C7.96283 12.2806 7.97 12.0548 7.97939 11.8887C7.98878 11.7225 8.00755 11.6224 8.30511 10.7885C8.60267 9.95461 9.17845 8.39 9.49697 7.49324C9.81548 6.59648 9.85929 6.41498 9.88186 6.28707C9.9486 5.90877 10.0368 5.60291 10.1819 5.46674C10.2799 5.37475 10.4535 5.31179 10.6802 5.22038C10.9744 5.10176 11.25 5.07113 11.4924 5.11494C11.8591 5.18123 12.1539 5.39922 12.4715 5.62547C12.6892 5.78051 12.9957 6.052 13.4073 6.46591C13.8188 6.87982 14.3195 7.43682 14.593 7.75192C14.9081 8.11477 14.9677 8.22519 15.2061 8.57946C15.4125 8.88622 15.7699 9.46569 15.9882 9.87182C16.2065 10.278 16.2691 10.497 16.3044 10.6912C16.3688 11.0447 16.3275 11.2846 16.2645 11.4202C16.1986 11.5621 16.0436 11.6766 15.8014 11.8184C15.6467 11.9089 15.4027 11.9914 15.0737 12.0867C14.7447 12.182 14.3316 12.2759 14.0406 12.3337C13.7496 12.3914 13.5931 12.4102 13.2935 12.4261C12.9938 12.442 12.5557 12.4546 12.0854 12.4864" stroke="#C67C4E" stroke-width="6" stroke-linecap="round" stroke-linejoin="round"/>
</svg>
