<svg width="25" height="25" viewBox="0 0 25 25" fill="none" xmlns="http://www.w3.org/2000/svg">
    <path fill-rule="evenodd" clip-rule="evenodd" d="M12.2394 4.6875C12.1446 4.6875 11.9113 4.71354 11.7873 4.96146L9.88525 8.76458C9.58421 9.36563 9.004 9.78333 8.33316 9.87917L4.07483 10.4927C3.79358 10.5333 3.69775 10.7417 3.66858 10.8292C3.64254 10.9135 3.60087 11.1281 3.79462 11.3135L6.87379 14.2719C7.36441 14.7438 7.58733 15.424 7.47066 16.0896L6.74566 20.2667C6.70087 20.5281 6.86441 20.6802 6.93733 20.7323C7.01441 20.7906 7.22066 20.9063 7.47587 20.7729L11.2832 18.799C11.8832 18.4896 12.5977 18.4896 13.1957 18.799L17.0019 20.7719C17.2582 20.9042 17.4644 20.7885 17.5425 20.7323C17.6155 20.6802 17.779 20.5281 17.7342 20.2667L17.0071 16.0896C16.8905 15.424 17.1134 14.7438 17.604 14.2719L20.6832 11.3135C20.878 11.1281 20.8363 10.9125 20.8092 10.8292C20.7811 10.7417 20.6852 10.5333 20.404 10.4927L16.1457 9.87917C15.4759 9.78333 14.8957 9.36563 14.5946 8.76354L12.6905 4.96146C12.5675 4.71354 12.3342 4.6875 12.2394 4.6875ZM7.23629 22.3958C6.80608 22.3958 6.379 22.2604 6.01337 21.9938C5.38212 21.5313 5.07275 20.7677 5.20712 19.999L5.93212 15.8219C5.95921 15.6667 5.90608 15.5094 5.7915 15.399L2.71233 12.4406C2.14566 11.8979 1.94254 11.0958 2.18212 10.351C2.42379 9.59792 3.06337 9.05938 3.85191 8.94688L8.11025 8.33333C8.27483 8.31042 8.4165 8.20938 8.48733 8.06563L10.3905 4.26146C10.7415 3.56042 11.4498 3.125 12.2394 3.125C13.029 3.125 13.7373 3.56042 14.0884 4.26146L15.9925 8.06458C16.0644 8.20938 16.205 8.31042 16.3686 8.33333L20.6269 8.94688C21.4155 9.05938 22.055 9.59792 22.2967 10.351C22.5363 11.0958 22.3321 11.8979 21.7655 12.4406L18.6863 15.399C18.5717 15.5094 18.5196 15.6667 18.5467 15.8208L19.2727 19.999C19.4061 20.7688 19.0967 21.5323 18.4644 21.9938C17.8238 22.4635 16.9894 22.5271 16.2821 22.1583L12.4769 20.1865C12.328 20.1094 12.1498 20.1094 12.0009 20.1865L8.19566 22.1594C7.8915 22.3177 7.56337 22.3958 7.23629 22.3958Z" fill="#C67C4E"/>
</svg>
