<svg width="25" height="25" viewBox="0 0 25 25" fill="none" xmlns="http://www.w3.org/2000/svg">
    <path d="M17.7083 20.8334C18.8589 20.8334 19.7917 19.9006 19.7917 18.75C19.7917 17.5994 18.8589 16.6667 17.7083 16.6667C16.5577 16.6667 15.625 17.5994 15.625 18.75C15.625 19.9006 16.5577 20.8334 17.7083 20.8334Z" stroke="#C67C4E" stroke-width="1.5"/>
    <path d="M7.29159 20.8334C8.44218 20.8334 9.37492 19.9006 9.37492 18.75C9.37492 17.5994 8.44218 16.6667 7.29159 16.6667C6.14099 16.6667 5.20825 17.5994 5.20825 18.75C5.20825 19.9006 6.14099 20.8334 7.29159 20.8334Z" stroke="#C67C4E" stroke-width="1.5"/>
    <path d="M5.20825 18.7209C4.06554 18.6646 3.35409 18.4948 2.84575 17.9875C2.33742 17.4802 2.16867 16.7677 2.11242 15.625M9.37492 18.75H15.6249M19.7916 18.7209C20.9343 18.6646 21.6458 18.4948 22.1541 17.9875C22.9166 17.224 22.9166 15.9969 22.9166 13.5417V11.4584H18.0208C17.2447 11.4584 16.8572 11.4584 16.5437 11.3563C16.231 11.2547 15.9468 11.0805 15.7144 10.8481C15.4819 10.6156 15.3078 10.3314 15.2062 10.0188C15.1041 9.70523 15.1041 9.31773 15.1041 8.54169C15.1041 7.37814 15.1041 6.7969 14.951 6.32606C14.7986 5.85708 14.5373 5.43082 14.1886 5.08212C13.84 4.73343 13.4137 4.47221 12.9447 4.31981C12.4739 4.16669 11.8926 4.16669 10.7291 4.16669H2.08325M2.08325 8.33335H8.33325M2.08325 11.4584H6.24992" stroke="#C67C4E" stroke-width="1.5" stroke-linecap="round" stroke-linejoin="round"/>
    <path d="M15.104 6.25H17.0009C18.5175 6.25 19.2748 6.25 19.8915 6.61875C20.5092 6.98646 20.8686 7.65417 21.5873 8.98958L22.9165 11.4583" stroke="#C67C4E" stroke-width="1.5" stroke-linecap="round" stroke-linejoin="round"/>
</svg>
