<svg width="32" height="32" viewBox="0 0 32 32" fill="none" xmlns="http://www.w3.org/2000/svg">
    <path d="M26.61 15.98L17.61 6.98003C17.235 6.6081 16.7281 6.3996 16.2 6.40003H9.19995C8.66952 6.40003 8.16081 6.61074 7.78574 6.98581C7.41067 7.36088 7.19995 7.86959 7.19995 8.40003V15.4C7.19974 15.6639 7.25177 15.9253 7.35303 16.169C7.45429 16.4127 7.60278 16.634 7.78995 16.82L16.79 25.82C17.1649 26.1919 17.6718 26.4004 18.2 26.4C18.7295 26.3978 19.2366 26.1856 19.61 25.81L26.61 18.81C26.9855 18.4367 27.1977 17.9296 27.2 17.4C27.2002 17.1361 27.1481 16.8748 27.0469 16.6311C26.9456 16.3873 26.7971 16.1661 26.61 15.98ZM18.2 24.4L9.19995 15.4V8.40003H16.2L25.2 17.4M11.7 9.40003C11.9966 9.40003 12.2866 9.488 12.5333 9.65282C12.78 9.81764 12.9722 10.0519 13.0858 10.326C13.1993 10.6001 13.229 10.9017 13.1711 11.1927C13.1133 11.4836 12.9704 11.7509 12.7606 11.9607C12.5508 12.1705 12.2836 12.3133 11.9926 12.3712C11.7016 12.4291 11.4 12.3994 11.1259 12.2858C10.8518 12.1723 10.6176 11.9801 10.4527 11.7334C10.2879 11.4867 10.2 11.1967 10.2 10.9C10.2 10.5022 10.358 10.1207 10.6393 9.83936C10.9206 9.55806 11.3021 9.40003 11.7 9.40003Z" fill="#C67C4E"/>
</svg>
