<svg width="25" height="25" viewBox="0 0 25 25" fill="none" xmlns="http://www.w3.org/2000/svg">
    <mask id="mask0_70_535" style="mask-type:luminance" maskUnits="userSpaceOnUse" x="2" y="6" width="21" height="18">
        <path fill-rule="evenodd" clip-rule="evenodd" d="M2.08325 6.81259H22.4852V23.6684H2.08325V6.81259Z" fill="white"/>
    </mask>
    <g mask="url(#mask0_70_535)">
        <path fill-rule="evenodd" clip-rule="evenodd" d="M6.99526 8.37509C6.53589 8.37509 5.00047 8.56051 4.55985 10.9397L3.75568 17.1897C3.49422 18.9428 3.6963 20.2115 4.35776 20.9793C5.01089 21.7376 6.17964 22.1063 7.92964 22.1063H16.6255C17.7171 22.1063 19.2078 21.8886 20.1078 20.849C20.8223 20.0251 21.0682 18.798 20.839 17.2011L20.0276 10.897C19.6817 9.34384 18.7692 8.37509 17.5984 8.37509H6.99526ZM16.6255 23.6688H7.92964C5.69735 23.6688 4.14214 23.122 3.17443 21.998C2.20255 20.8709 1.87755 19.1803 2.2088 16.974L3.01714 10.697C3.54839 7.81884 5.4911 6.81259 6.99526 6.81259H17.5984C19.1088 6.81259 20.9453 7.81572 21.5651 10.6293L22.3869 16.9907C22.6817 19.0438 22.313 20.6907 21.289 21.872C20.2703 23.047 18.6578 23.6688 16.6255 23.6688V23.6688Z" fill="#C67C4E"/>
    </g>
    <path fill-rule="evenodd" clip-rule="evenodd" d="M16.7686 8.14615C16.3373 8.14615 15.9873 7.79615 15.9873 7.3649C15.9873 5.31386 14.3186 3.64615 12.2686 3.64615H12.2529C11.2727 3.64615 10.3175 4.04094 9.62482 4.72948C8.92899 5.42219 8.53003 6.38365 8.53003 7.3649C8.53003 7.79615 8.18003 8.14615 7.74878 8.14615C7.31753 8.14615 6.96753 7.79615 6.96753 7.3649C6.96753 5.97011 7.5342 4.60657 8.5217 3.62219C9.50607 2.64407 10.8634 2.08365 12.2498 2.08365H12.2717C15.1811 2.08365 17.5498 4.4524 17.5498 7.3649C17.5498 7.79615 17.1998 8.14615 16.7686 8.14615" fill="#C67C4E"/>
    <path fill-rule="evenodd" clip-rule="evenodd" d="M15.3575 12.8377H15.3096C14.8783 12.8377 14.5283 12.4877 14.5283 12.0565C14.5283 11.6252 14.8783 11.2752 15.3096 11.2752C15.7408 11.2752 16.1148 11.6252 16.1148 12.0565C16.1148 12.4877 15.7887 12.8377 15.3575 12.8377" fill="#C67C4E"/>
    <path fill-rule="evenodd" clip-rule="evenodd" d="M9.28345 12.8377H9.23657C8.80532 12.8377 8.45532 12.4877 8.45532 12.0565C8.45532 11.6252 8.80532 11.2752 9.23657 11.2752C9.66782 11.2752 10.0418 11.6252 10.0418 12.0565C10.0418 12.4877 9.7147 12.8377 9.28345 12.8377" fill="#C67C4E"/>
</svg>
