<svg width="40" height="40" viewBox="0 0 40 40" fill="none" xmlns="http://www.w3.org/2000/svg">
<path d="M7.31406 19V11.65H8.73406V19H7.31406ZM11.7741 19L9.53406 15.82H11.1241L13.4341 19H11.7741ZM8.31406 16.56V15.41H10.1741C10.4341 15.41 10.6574 15.3567 10.8441 15.25C11.0374 15.1433 11.1874 14.9933 11.2941 14.8C11.4007 14.6067 11.4541 14.3867 11.4541 14.14C11.4541 13.8867 11.4007 13.6633 11.2941 13.47C11.1874 13.2767 11.0374 13.1267 10.8441 13.02C10.6574 12.9133 10.4341 12.86 10.1741 12.86H8.31406V11.65H10.0241C10.6107 11.65 11.1174 11.7367 11.5441 11.91C11.9774 12.0833 12.3107 12.3467 12.5441 12.7C12.7774 13.0533 12.8941 13.4967 12.8941 14.03V14.19C12.8941 14.73 12.7741 15.1733 12.5341 15.52C12.3007 15.8667 11.9707 16.1267 11.5441 16.3C11.1174 16.4733 10.6107 16.56 10.0241 16.56H8.31406ZM16.7337 19.19C16.267 19.19 15.857 19.11 15.5037 18.95C15.157 18.79 14.867 18.5767 14.6337 18.31C14.407 18.0367 14.2337 17.7333 14.1137 17.4C14.0003 17.0667 13.9437 16.7267 13.9437 16.38V16.19C13.9437 15.83 14.0003 15.4833 14.1137 15.15C14.2337 14.81 14.407 14.51 14.6337 14.25C14.867 13.9833 15.1537 13.7733 15.4937 13.62C15.8337 13.46 16.227 13.38 16.6737 13.38C17.2603 13.38 17.7503 13.51 18.1437 13.77C18.5437 14.0233 18.8437 14.36 19.0437 14.78C19.2437 15.1933 19.3437 15.64 19.3437 16.12V16.62H14.5337V15.77H18.4737L18.0437 16.19C18.0437 15.8433 17.9937 15.5467 17.8937 15.3C17.7937 15.0533 17.6403 14.8633 17.4337 14.73C17.2337 14.5967 16.9803 14.53 16.6737 14.53C16.367 14.53 16.107 14.6 15.8937 14.74C15.6803 14.88 15.517 15.0833 15.4037 15.35C15.297 15.61 15.2437 15.9233 15.2437 16.29C15.2437 16.63 15.297 16.9333 15.4037 17.2C15.5103 17.46 15.6737 17.6667 15.8937 17.82C16.1137 17.9667 16.3937 18.04 16.7337 18.04C17.0737 18.04 17.3503 17.9733 17.5637 17.84C17.777 17.7 17.9137 17.53 17.9737 17.33H19.2537C19.1737 17.7033 19.0203 18.03 18.7937 18.31C18.567 18.59 18.277 18.8067 17.9237 18.96C17.577 19.1133 17.1803 19.19 16.7337 19.19ZM23.7948 19V17.39H23.5648V15.6C23.5648 15.2867 23.4882 15.0533 23.3348 14.9C23.1815 14.7467 22.9448 14.67 22.6248 14.67C22.4582 14.67 22.2582 14.6733 22.0248 14.68C21.7915 14.6867 21.5548 14.6967 21.3148 14.71C21.0815 14.7167 20.8715 14.7267 20.6848 14.74V13.56C20.8382 13.5467 21.0115 13.5333 21.2048 13.52C21.3982 13.5067 21.5948 13.5 21.7948 13.5C22.0015 13.4933 22.1948 13.49 22.3748 13.49C22.9348 13.49 23.3982 13.5633 23.7648 13.71C24.1382 13.8567 24.4182 14.0867 24.6048 14.4C24.7982 14.7133 24.8948 15.1233 24.8948 15.63V19H23.7948ZM22.0448 19.14C21.6515 19.14 21.3048 19.07 21.0048 18.93C20.7115 18.79 20.4815 18.59 20.3148 18.33C20.1548 18.07 20.0748 17.7567 20.0748 17.39C20.0748 16.99 20.1715 16.6633 20.3648 16.41C20.5648 16.1567 20.8415 15.9667 21.1948 15.84C21.5548 15.7133 21.9748 15.65 22.4548 15.65H23.7148V16.48H22.4348C22.1148 16.48 21.8682 16.56 21.6948 16.72C21.5282 16.8733 21.4448 17.0733 21.4448 17.32C21.4448 17.5667 21.5282 17.7667 21.6948 17.92C21.8682 18.0733 22.1148 18.15 22.4348 18.15C22.6282 18.15 22.8048 18.1167 22.9648 18.05C23.1315 17.9767 23.2682 17.8567 23.3748 17.69C23.4882 17.5167 23.5515 17.2833 23.5648 16.99L23.9048 17.38C23.8715 17.76 23.7782 18.08 23.6248 18.34C23.4782 18.6 23.2715 18.8 23.0048 18.94C22.7448 19.0733 22.4248 19.14 22.0448 19.14ZM28.6338 19.18C28.2538 19.18 27.9038 19.11 27.5838 18.97C27.2638 18.83 26.9871 18.6333 26.7538 18.38C26.5204 18.1267 26.3404 17.8333 26.2138 17.5C26.0871 17.16 26.0238 16.7933 26.0238 16.4V16.19C26.0238 15.8033 26.0838 15.44 26.2038 15.1C26.3304 14.76 26.5038 14.4633 26.7238 14.21C26.9504 13.9567 27.2204 13.76 27.5338 13.62C27.8538 13.4733 28.2071 13.4 28.5938 13.4C29.0204 13.4 29.3938 13.4933 29.7138 13.68C30.0404 13.86 30.3004 14.1333 30.4938 14.5C30.6871 14.8667 30.7938 15.3267 30.8138 15.88L30.4038 15.4V11.7H31.7938V19H30.6938V16.69H30.9338C30.9138 17.2433 30.8004 17.7067 30.5938 18.08C30.3871 18.4467 30.1138 18.7233 29.7738 18.91C29.4404 19.09 29.0604 19.18 28.6338 19.18ZM28.9438 18.01C29.2171 18.01 29.4671 17.95 29.6938 17.83C29.9204 17.7033 30.1004 17.5233 30.2338 17.29C30.3738 17.05 30.4438 16.77 30.4438 16.45V16.05C30.4438 15.73 30.3738 15.4633 30.2338 15.25C30.0938 15.03 29.9104 14.8633 29.6838 14.75C29.4571 14.63 29.2104 14.57 28.9438 14.57C28.6438 14.57 28.3771 14.6433 28.1438 14.79C27.9171 14.93 27.7371 15.13 27.6038 15.39C27.4771 15.65 27.4138 15.9533 27.4138 16.3C27.4138 16.6467 27.4804 16.95 27.6138 17.21C27.7471 17.4633 27.9271 17.66 28.1538 17.8C28.3871 17.94 28.6504 18.01 28.9438 18.01ZM17.5937 31V29.39H17.3637V27.6C17.3637 27.2867 17.287 27.0533 17.1337 26.9C16.9803 26.7467 16.7437 26.67 16.4237 26.67C16.257 26.67 16.057 26.6733 15.8237 26.68C15.5903 26.6867 15.3537 26.6967 15.1137 26.71C14.8803 26.7167 14.6703 26.7267 14.4837 26.74V25.56C14.637 25.5467 14.8103 25.5333 15.0037 25.52C15.197 25.5067 15.3937 25.5 15.5937 25.5C15.8003 25.4933 15.9937 25.49 16.1737 25.49C16.7337 25.49 17.197 25.5633 17.5637 25.71C17.937 25.8567 18.217 26.0867 18.4037 26.4C18.597 26.7133 18.6937 27.1233 18.6937 27.63V31H17.5937ZM15.8437 31.14C15.4503 31.14 15.1037 31.07 14.8037 30.93C14.5103 30.79 14.2803 30.59 14.1137 30.33C13.9537 30.07 13.8737 29.7567 13.8737 29.39C13.8737 28.99 13.9703 28.6633 14.1637 28.41C14.3637 28.1567 14.6403 27.9667 14.9937 27.84C15.3537 27.7133 15.7737 27.65 16.2537 27.65H17.5137V28.48H16.2337C15.9137 28.48 15.667 28.56 15.4937 28.72C15.327 28.8733 15.2437 29.0733 15.2437 29.32C15.2437 29.5667 15.327 29.7667 15.4937 29.92C15.667 30.0733 15.9137 30.15 16.2337 30.15C16.427 30.15 16.6037 30.1167 16.7637 30.05C16.9303 29.9767 17.067 29.8567 17.1737 29.69C17.287 29.5167 17.3503 29.2833 17.3637 28.99L17.7037 29.38C17.6703 29.76 17.577 30.08 17.4237 30.34C17.277 30.6 17.0703 30.8 16.8037 30.94C16.5437 31.0733 16.2237 31.14 15.8437 31.14ZM20.2526 31V23.7H21.6426V31H20.2526ZM19.5726 24.74V23.7H21.6426V24.74H19.5726ZM23.2995 31V23.7H24.6895V31H23.2995ZM22.6195 24.74V23.7H24.6895V24.74H22.6195Z" fill="#C67C4E"/>
</svg>
