<svg width="25" height="25" viewBox="0 0 25 25" fill="none" xmlns="http://www.w3.org/2000/svg">
    <path d="M20.7953 13.1875C20.6283 12.9974 20.5362 12.753 20.5362 12.5C20.5362 12.247 20.6283 12.0026 20.7953 11.8125L22.1286 10.3125C22.2755 10.1486 22.3668 9.94239 22.3892 9.72344C22.4117 9.50448 22.3642 9.28404 22.2536 9.09374L20.1703 5.48958C20.0608 5.29949 19.8941 5.14882 19.694 5.05904C19.4938 4.96926 19.2704 4.94495 19.0557 4.98958L17.0973 5.38541C16.8482 5.4369 16.5887 5.3954 16.3681 5.26874C16.1474 5.14209 15.9807 4.93904 15.8994 4.69791L15.264 2.79166C15.1941 2.58476 15.061 2.40506 14.8834 2.27795C14.7058 2.15085 14.4928 2.08276 14.2744 2.08333H10.1078C9.88061 2.07147 9.65582 2.13429 9.46772 2.26219C9.27963 2.3901 9.13857 2.57605 9.06609 2.79166L8.48276 4.69791C8.40151 4.93904 8.23482 5.14209 8.01413 5.26874C7.79344 5.3954 7.53403 5.4369 7.28484 5.38541L5.27443 4.98958C5.07084 4.96081 4.86328 4.99293 4.67791 5.08191C4.49255 5.17088 4.33766 5.31273 4.23276 5.48958L2.14943 9.09374C2.03605 9.28192 1.98508 9.50112 2.00378 9.72002C2.02249 9.93891 2.10993 10.1463 2.25359 10.3125L3.57651 11.8125C3.74351 12.0026 3.83561 12.247 3.83561 12.5C3.83561 12.753 3.74351 12.9974 3.57651 13.1875L2.25359 14.6875C2.10993 14.8537 2.02249 15.0611 2.00378 15.28C1.98508 15.4989 2.03605 15.7181 2.14943 15.9062L4.23276 19.5104C4.34224 19.7005 4.50893 19.8512 4.70907 19.9409C4.9092 20.0307 5.13258 20.055 5.34734 20.0104L7.30568 19.6146C7.55486 19.5631 7.81428 19.6046 8.03496 19.7312C8.25565 19.8579 8.42235 20.0609 8.50359 20.3021L9.13901 22.2083C9.21149 22.4239 9.35255 22.6099 9.54064 22.7378C9.72874 22.8657 9.95353 22.9285 10.1807 22.9167H14.3473C14.5657 22.9172 14.7788 22.8491 14.9563 22.722C15.1339 22.5949 15.267 22.4152 15.3369 22.2083L15.9723 20.3021C16.0536 20.0609 16.2203 19.8579 16.441 19.7312C16.6617 19.6046 16.9211 19.5631 17.1703 19.6146L19.1286 20.0104C19.3434 20.055 19.5667 20.0307 19.7669 19.9409C19.967 19.8512 20.1337 19.7005 20.2432 19.5104L22.3265 15.9062C22.4371 15.7159 22.4846 15.4955 22.4621 15.2765C22.4397 15.0576 22.3484 14.8514 22.2015 14.6875L20.7953 13.1875ZM19.2432 14.5833L20.0765 15.5208L18.7432 17.8333L17.514 17.5833C16.7638 17.43 15.9834 17.5574 15.3209 17.9415C14.6584 18.3255 14.16 18.9394 13.9203 19.6667L13.5244 20.8333H10.8578L10.4828 19.6458C10.243 18.9186 9.74462 18.3047 9.08214 17.9206C8.41967 17.5366 7.63924 17.4091 6.88901 17.5625L5.65984 17.8125L4.30568 15.5104L5.13901 14.5729C5.65146 14 5.93477 13.2583 5.93477 12.4896C5.93477 11.7209 5.65146 10.9792 5.13901 10.4062L4.30568 9.46874L5.63901 7.17708L6.86818 7.42708C7.61841 7.58043 8.39883 7.45299 9.06131 7.06895C9.72378 6.68491 10.2222 6.07099 10.4619 5.34374L10.8578 4.16666H13.5244L13.9203 5.35416C14.16 6.08141 14.6584 6.69532 15.3209 7.07937C15.9834 7.46341 16.7638 7.59085 17.514 7.43749L18.7432 7.18749L20.0765 9.49999L19.2432 10.4375C18.7365 11.0091 18.4567 11.7465 18.4567 12.5104C18.4567 13.2743 18.7365 14.0117 19.2432 14.5833ZM12.1911 8.33333C11.367 8.33333 10.5614 8.5777 9.87622 9.03554C9.19101 9.49337 8.65696 10.1441 8.3416 10.9055C8.02623 11.6668 7.94372 12.5046 8.10449 13.3129C8.26526 14.1211 8.6621 14.8636 9.24482 15.4463C9.82754 16.029 10.57 16.4258 11.3782 16.5866C12.1865 16.7474 13.0242 16.6649 13.7856 16.3495C14.547 16.0341 15.1977 15.5001 15.6556 14.8149C16.1134 14.1297 16.3578 13.3241 16.3578 12.5C16.3578 11.3949 15.9188 10.3351 15.1374 9.55371C14.356 8.77231 13.2962 8.33333 12.1911 8.33333ZM12.1911 14.5833C11.779 14.5833 11.3763 14.4611 11.0337 14.2322C10.6911 14.0033 10.424 13.6779 10.2663 13.2972C10.1087 12.9166 10.0674 12.4977 10.1478 12.0936C10.2282 11.6894 10.4266 11.3182 10.718 11.0269C11.0093 10.7355 11.3805 10.5371 11.7847 10.4567C12.1888 10.3763 12.6077 10.4176 12.9884 10.5752C13.369 10.7329 13.6944 11 13.9233 11.3426C14.1522 11.6852 14.2744 12.0879 14.2744 12.5C14.2744 13.0525 14.0549 13.5824 13.6642 13.9731C13.2735 14.3638 12.7436 14.5833 12.1911 14.5833Z" fill="#C67C4E"/>
</svg>
